solid GC101drillblock
facet normal 0.0 -1.0 0.0
  outer loop
    vertex 65.8122502093087 77.75352290126325 5.000000000000045
    vertex 42.61225020930872 77.75352290126325 -4.999999999999955
    vertex 65.8122502093087 77.75352290126325 -4.999999999999955
  endloop
endfacet
facet normal 0.0 -1.0 0.0
  outer loop
    vertex 42.61225020930872 77.75352290126325 -4.999999999999955
    vertex 65.8122502093087 77.75352290126325 5.000000000000045
    vertex 42.662250209308716 77.75352290126325 4.511946372076636e-14
  endloop
endfacet
facet normal 0.0 -1.0 0.0
  outer loop
    vertex 42.662250209308716 77.75352290126325 4.511946372076636e-14
    vertex 65.8122502093087 77.75352290126325 5.000000000000045
    vertex 42.662250209308716 77.75352290126325 5.000000000000045
  endloop
endfacet
facet normal 0.0 -1.0 0.0
  outer loop
    vertex 42.61225020930872 77.75352290126325 4.511946372076636e-14
    vertex 42.61225020930872 77.75352290126325 -4.999999999999955
    vertex 42.662250209308716 77.75352290126325 4.511946372076636e-14
  endloop
endfacet
facet normal 0.0 0.0 1.0
  outer loop
    vertex 10.092149209308717 77.75352290126325 5.000000000000045
    vertex 21.424250209308713 84.99108733596503 5.000000000000045
    vertex 10.092149209308717 91.55518190126325 5.000000000000045
  endloop
endfacet
facet normal 0.0 0.0 1.0
  outer loop
    vertex 21.424250209308713 84.99108733596503 5.000000000000045
    vertex 10.092149209308717 77.75352290126325 5.000000000000045
    vertex 21.761903546165186 84.85122674445856 5.000000000000045
  endloop
endfacet
facet normal 0.0 0.0 1.0
  outer loop
    vertex 21.761903546165186 84.85122674445856 5.000000000000045
    vertex 10.092149209308717 77.75352290126325 5.000000000000045
    vertex 42.662250209308716 77.75352290126325 5.000000000000045
  endloop
endfacet
facet normal 0.0 0.0 1.0
  outer loop
    vertex 10.092149209308717 91.55518190126325 5.000000000000045
    vertex 21.424250209308713 84.99108733596503 5.000000000000045
    vertex 21.134300715647548 85.21357340760208 5.000000000000045
  endloop
endfacet
facet normal 0.0 0.0 1.0
  outer loop
    vertex 10.092149209308717 91.55518190126325 5.000000000000045
    vertex 21.134300715647548 85.21357340760208 5.000000000000045
    vertex 20.9118146440105 85.50352290126325 5.000000000000045
  endloop
endfacet
facet normal 0.0 0.0 1.0
  outer loop
    vertex 10.092149209308717 91.55518190126325 5.000000000000045
    vertex 20.9118146440105 85.50352290126325 5.000000000000045
    vertex 20.771954052504018 85.84117623811973 5.000000000000045
  endloop
endfacet
facet normal 0.0 0.0 1.0
  outer loop
    vertex 10.092149209308717 91.55518190126325 5.000000000000045
    vertex 20.771954052504018 85.84117623811973 5.000000000000045
    vertex 20.724250209308718 86.20352290126326 5.000000000000045
  endloop
endfacet
facet normal 0.0 0.0 1.0
  outer loop
    vertex 21.761903546165186 84.85122674445856 5.000000000000045
    vertex 42.662250209308716 77.75352290126325 5.000000000000045
    vertex 22.124250209308716 84.80352290126325 5.000000000000045
  endloop
endfacet
facet normal 0.0 0.0 1.0
  outer loop
    vertex 22.124250209308716 84.80352290126325 5.000000000000045
    vertex 42.662250209308716 77.75352290126325 5.000000000000045
    vertex 22.486596872452242 84.85122674445856 5.000000000000045
  endloop
endfacet
facet normal 0.0 0.0 1.0
  outer loop
    vertex 22.486596872452242 84.85122674445856 5.000000000000045
    vertex 42.662250209308716 77.75352290126325 5.000000000000045
    vertex 22.824250209308715 84.99108733596503 5.000000000000045
  endloop
endfacet
facet normal 0.0 0.0 1.0
  outer loop
    vertex 22.824250209308715 84.99108733596503 5.000000000000045
    vertex 42.662250209308716 77.75352290126325 5.000000000000045
    vertex 23.114199702969884 85.21357340760208 5.000000000000045
  endloop
endfacet
facet normal 0.0 0.0 1.0
  outer loop
    vertex 23.114199702969884 85.21357340760208 5.000000000000045
    vertex 42.662250209308716 77.75352290126325 5.000000000000045
    vertex 23.33668577460693 85.50352290126325 5.000000000000045
  endloop
endfacet
facet normal 0.0 0.0 1.0
  outer loop
    vertex 23.33668577460693 85.50352290126325 5.000000000000045
    vertex 42.662250209308716 77.75352290126325 5.000000000000045
    vertex 23.47654636611341 85.84117623811973 5.000000000000045
  endloop
endfacet
facet normal 0.0 0.0 1.0
  outer loop
    vertex 23.47654636611341 85.84117623811973 5.000000000000045
    vertex 42.662250209308716 77.75352290126325 5.000000000000045
    vertex 23.524250209308715 86.20352290126326 5.000000000000045
  endloop
endfacet
facet normal 0.0 0.0 1.0
  outer loop
    vertex 10.092149209308717 91.55518190126325 5.000000000000045
    vertex 21.76190354616519 87.55581905806794 5.000000000000045
    vertex 42.662250209308716 91.55518190126325 5.000000000000045
  endloop
endfacet
facet normal 0.0 0.0 1.0
  outer loop
    vertex 21.76190354616519 87.55581905806794 5.000000000000045
    vertex 10.092149209308717 91.55518190126325 5.000000000000045
    vertex 21.424250209308717 87.41595846656146 5.000000000000045
  endloop
endfacet
facet normal 0.0 0.0 1.0
  outer loop
    vertex 21.424250209308717 87.41595846656146 5.000000000000045
    vertex 10.092149209308717 91.55518190126325 5.000000000000045
    vertex 21.134300715647548 87.19347239492441 5.000000000000045
  endloop
endfacet
facet normal 0.0 0.0 1.0
  outer loop
    vertex 21.134300715647548 87.19347239492441 5.000000000000045
    vertex 10.092149209308717 91.55518190126325 5.000000000000045
    vertex 20.9118146440105 86.90352290126324 5.000000000000045
  endloop
endfacet
facet normal 0.0 0.0 1.0
  outer loop
    vertex 20.9118146440105 86.90352290126324 5.000000000000045
    vertex 10.092149209308717 91.55518190126325 5.000000000000045
    vertex 20.77195405250402 86.56586956440678 5.000000000000045
  endloop
endfacet
facet normal 0.0 0.0 1.0
  outer loop
    vertex 20.77195405250402 86.56586956440678 5.000000000000045
    vertex 10.092149209308717 91.55518190126325 5.000000000000045
    vertex 20.724250209308718 86.20352290126326 5.000000000000045
  endloop
endfacet
facet normal 0.0 0.0 1.0
  outer loop
    vertex 42.662250209308716 91.55518190126325 5.000000000000045
    vertex 21.76190354616519 87.55581905806794 5.000000000000045
    vertex 22.124250209308716 87.60352290126325 5.000000000000045
  endloop
endfacet
facet normal 0.0 0.0 1.0
  outer loop
    vertex 42.662250209308716 91.55518190126325 5.000000000000045
    vertex 22.124250209308716 87.60352290126325 5.000000000000045
    vertex 22.486596872452246 87.55581905806794 5.000000000000045
  endloop
endfacet
facet normal 0.0 0.0 1.0
  outer loop
    vertex 42.662250209308716 91.55518190126325 5.000000000000045
    vertex 22.486596872452246 87.55581905806794 5.000000000000045
    vertex 22.82425020930872 87.41595846656146 5.000000000000045
  endloop
endfacet
facet normal 0.0 0.0 1.0
  outer loop
    vertex 42.662250209308716 91.55518190126325 5.000000000000045
    vertex 22.82425020930872 87.41595846656146 5.000000000000045
    vertex 23.114199702969884 87.19347239492441 5.000000000000045
  endloop
endfacet
facet normal 0.0 0.0 1.0
  outer loop
    vertex 42.662250209308716 91.55518190126325 5.000000000000045
    vertex 23.114199702969884 87.19347239492441 5.000000000000045
    vertex 23.33668577460693 86.90352290126324 5.000000000000045
  endloop
endfacet
facet normal 0.0 0.0 1.0
  outer loop
    vertex 42.662250209308716 91.55518190126325 5.000000000000045
    vertex 23.33668577460693 86.90352290126324 5.000000000000045
    vertex 23.47654636611341 86.56586956440678 5.000000000000045
  endloop
endfacet
facet normal 0.0 0.0 1.0
  outer loop
    vertex 42.662250209308716 91.55518190126325 5.000000000000045
    vertex 23.47654636611341 86.56586956440678 5.000000000000045
    vertex 23.524250209308715 86.20352290126326 5.000000000000045
  endloop
endfacet
facet normal 0.0 0.0 1.0
  outer loop
    vertex 42.662250209308716 91.55518190126325 5.000000000000045
    vertex 23.524250209308715 86.20352290126326 5.000000000000045
    vertex 42.662250209308716 77.75352290126325 5.000000000000045
  endloop
endfacet
facet normal 0.0 0.0 1.0
  outer loop
    vertex 42.662250209308716 91.55518190126325 5.000000000000045
    vertex 42.662250209308716 77.75352290126325 5.000000000000045
    vertex 42.662250209308716 89.85352290126326 5.000000000000045
  endloop
endfacet
facet normal 1.0 0.0 0.0
  outer loop
    vertex 42.662250209308716 91.55518190126325 4.511946372076636e-14
    vertex 42.662250209308716 89.85352290126326 5.000000000000045
    vertex 42.662250209308716 89.85352290126326 4.511946372076636e-14
  endloop
endfacet
facet normal 1.0 0.0 0.0
  outer loop
    vertex 42.662250209308716 89.85352290126326 5.000000000000045
    vertex 42.662250209308716 91.55518190126325 4.511946372076636e-14
    vertex 42.662250209308716 91.55518190126325 5.000000000000045
  endloop
endfacet
facet normal -1.0 0.0 0.0
  outer loop
    vertex 42.61225020930872 89.85352290126326 4.511946372076636e-14
    vertex 42.61225020930872 77.75352290126325 -4.999999999999955
    vertex 42.61225020930872 77.75352290126325 4.511946372076636e-14
  endloop
endfacet
facet normal -1.0 0.0 0.0
  outer loop
    vertex 42.61225020930872 77.75352290126325 -4.999999999999955
    vertex 42.61225020930872 89.85352290126326 4.511946372076636e-14
    vertex 42.61225020930872 89.85352290126326 -4.999999999999955
  endloop
endfacet
facet normal 0.0 -1.0 0.0
  outer loop
    vertex 42.662250209308716 77.75352290126325 5.000000000000045
    vertex 42.61225020930872 77.75352290126325 4.511946372076636e-14
    vertex 42.662250209308716 77.75352290126325 4.511946372076636e-14
  endloop
endfacet
facet normal 0.0 -1.0 0.0
  outer loop
    vertex 42.61225020930872 77.75352290126325 4.511946372076636e-14
    vertex 42.662250209308716 77.75352290126325 5.000000000000045
    vertex 10.092149209308717 77.75352290126325 4.511946372076636e-14
  endloop
endfacet
facet normal 0.0 -1.0 0.0
  outer loop
    vertex 10.092149209308717 77.75352290126325 4.511946372076636e-14
    vertex 42.662250209308716 77.75352290126325 5.000000000000045
    vertex 10.092149209308717 77.75352290126325 5.000000000000045
  endloop
endfacet
facet normal 0.0 1.0 0.0
  outer loop
    vertex 10.092149209308717 91.55518190126325 5.000000000000045
    vertex 42.662250209308716 91.55518190126325 4.511946372076636e-14
    vertex 10.092149209308717 91.55518190126325 4.511946372076636e-14
  endloop
endfacet
facet normal 0.0 1.0 0.0
  outer loop
    vertex 42.662250209308716 91.55518190126325 4.511946372076636e-14
    vertex 10.092149209308717 91.55518190126325 5.000000000000045
    vertex 42.662250209308716 91.55518190126325 5.000000000000045
  endloop
endfacet
facet normal 1.0 0.0 0.0
  outer loop
    vertex 65.8122502093087 89.85352290126326 -4.999999999999955
    vertex 65.8122502093087 77.75352290126325 5.000000000000045
    vertex 65.8122502093087 77.75352290126325 -4.999999999999955
  endloop
endfacet
facet normal 1.0 0.0 0.0
  outer loop
    vertex 65.8122502093087 77.75352290126325 5.000000000000045
    vertex 65.8122502093087 89.85352290126326 -4.999999999999955
    vertex 65.8122502093087 89.85352290126326 5.000000000000045
  endloop
endfacet
facet normal 0.0 0.0 1.0
  outer loop
    vertex 65.8122502093087 77.75352290126325 5.000000000000045
    vertex 42.662250209308716 89.85352290126326 5.000000000000045
    vertex 42.662250209308716 77.75352290126325 5.000000000000045
  endloop
endfacet
facet normal 0.0 0.0 1.0
  outer loop
    vertex 42.662250209308716 89.85352290126326 5.000000000000045
    vertex 65.8122502093087 77.75352290126325 5.000000000000045
    vertex 65.8122502093087 89.85352290126326 5.000000000000045
  endloop
endfacet
facet normal 0.0 1.0 0.0
  outer loop
    vertex 42.61225020930872 89.85352290126326 4.511946372076636e-14
    vertex 65.8122502093087 89.85352290126326 -4.999999999999955
    vertex 42.61225020930872 89.85352290126326 -4.999999999999955
  endloop
endfacet
facet normal 0.0 1.0 0.0
  outer loop
    vertex 65.8122502093087 89.85352290126326 -4.999999999999955
    vertex 42.61225020930872 89.85352290126326 4.511946372076636e-14
    vertex 42.662250209308716 89.85352290126326 4.511946372076636e-14
  endloop
endfacet
facet normal 0.0 1.0 0.0
  outer loop
    vertex 65.8122502093087 89.85352290126326 -4.999999999999955
    vertex 42.662250209308716 89.85352290126326 4.511946372076636e-14
    vertex 65.8122502093087 89.85352290126326 5.000000000000045
  endloop
endfacet
facet normal 0.0 1.0 0.0
  outer loop
    vertex 65.8122502093087 89.85352290126326 5.000000000000045
    vertex 42.662250209308716 89.85352290126326 4.511946372076636e-14
    vertex 42.662250209308716 89.85352290126326 5.000000000000045
  endloop
endfacet
facet normal -1.0 -0.0 -0.0
  outer loop
    vertex 10.092149209308717 91.55518190126325 5.000000000000045
    vertex 10.092149209308717 77.75352290126325 4.511946372076636e-14
    vertex 10.092149209308717 77.75352290126325 5.000000000000045
  endloop
endfacet
facet normal -1.0 -0.0 -0.0
  outer loop
    vertex 10.092149209308717 77.75352290126325 4.511946372076636e-14
    vertex 10.092149209308717 91.55518190126325 5.000000000000045
    vertex 10.092149209308717 91.55518190126325 4.511946372076636e-14
  endloop
endfacet
facet normal 0.0 0.0 -1.0
  outer loop
    vertex 10.092149209308717 91.55518190126325 4.511946372076636e-14
    vertex 21.134300715647548 87.19347239492441 4.511946372076636e-14
    vertex 10.092149209308717 77.75352290126325 4.511946372076636e-14
  endloop
endfacet
facet normal 0.0 0.0 -1.0
  outer loop
    vertex 21.134300715647548 87.19347239492441 4.511946372076636e-14
    vertex 10.092149209308717 91.55518190126325 4.511946372076636e-14
    vertex 21.424250209308717 87.41595846656146 4.511946372076636e-14
  endloop
endfacet
facet normal 0.0 0.0 -1.0
  outer loop
    vertex 21.424250209308717 87.41595846656146 4.511946372076636e-14
    vertex 10.092149209308717 91.55518190126325 4.511946372076636e-14
    vertex 21.76190354616519 87.55581905806794 4.511946372076636e-14
  endloop
endfacet
facet normal 0.0 0.0 -1.0
  outer loop
    vertex 21.76190354616519 87.55581905806794 4.511946372076636e-14
    vertex 10.092149209308717 91.55518190126325 4.511946372076636e-14
    vertex 42.662250209308716 91.55518190126325 4.511946372076636e-14
  endloop
endfacet
facet normal 0.0 0.0 -1.0
  outer loop
    vertex 10.092149209308717 77.75352290126325 4.511946372076636e-14
    vertex 21.134300715647548 87.19347239492441 4.511946372076636e-14
    vertex 20.9118146440105 86.90352290126324 4.511946372076636e-14
  endloop
endfacet
facet normal 0.0 0.0 -1.0
  outer loop
    vertex 10.092149209308717 77.75352290126325 4.511946372076636e-14
    vertex 20.9118146440105 86.90352290126324 4.511946372076636e-14
    vertex 20.77195405250402 86.56586956440678 4.511946372076636e-14
  endloop
endfacet
facet normal 0.0 0.0 -1.0
  outer loop
    vertex 10.092149209308717 77.75352290126325 4.511946372076636e-14
    vertex 20.77195405250402 86.56586956440678 4.511946372076636e-14
    vertex 20.724250209308718 86.20352290126326 4.511946372076636e-14
  endloop
endfacet
facet normal 0.0 0.0 -1.0
  outer loop
    vertex 21.76190354616519 87.55581905806794 4.511946372076636e-14
    vertex 42.662250209308716 91.55518190126325 4.511946372076636e-14
    vertex 22.124250209308716 87.60352290126325 4.511946372076636e-14
  endloop
endfacet
facet normal 0.0 0.0 -1.0
  outer loop
    vertex 22.124250209308716 87.60352290126325 4.511946372076636e-14
    vertex 42.662250209308716 91.55518190126325 4.511946372076636e-14
    vertex 22.486596872452246 87.55581905806794 4.511946372076636e-14
  endloop
endfacet
facet normal 0.0 0.0 -1.0
  outer loop
    vertex 22.486596872452246 87.55581905806794 4.511946372076636e-14
    vertex 42.662250209308716 91.55518190126325 4.511946372076636e-14
    vertex 22.82425020930872 87.41595846656146 4.511946372076636e-14
  endloop
endfacet
facet normal 0.0 0.0 -1.0
  outer loop
    vertex 22.82425020930872 87.41595846656146 4.511946372076636e-14
    vertex 42.662250209308716 91.55518190126325 4.511946372076636e-14
    vertex 23.114199702969884 87.19347239492441 4.511946372076636e-14
  endloop
endfacet
facet normal 0.0 0.0 -1.0
  outer loop
    vertex 23.114199702969884 87.19347239492441 4.511946372076636e-14
    vertex 42.662250209308716 91.55518190126325 4.511946372076636e-14
    vertex 23.33668577460693 86.90352290126324 4.511946372076636e-14
  endloop
endfacet
facet normal 0.0 0.0 -1.0
  outer loop
    vertex 23.33668577460693 86.90352290126324 4.511946372076636e-14
    vertex 42.662250209308716 91.55518190126325 4.511946372076636e-14
    vertex 23.47654636611341 86.56586956440678 4.511946372076636e-14
  endloop
endfacet
facet normal 0.0 0.0 -1.0
  outer loop
    vertex 23.47654636611341 86.56586956440678 4.511946372076636e-14
    vertex 42.662250209308716 91.55518190126325 4.511946372076636e-14
    vertex 23.524250209308715 86.20352290126326 4.511946372076636e-14
  endloop
endfacet
facet normal 0.0 0.0 -1.0
  outer loop
    vertex 23.524250209308715 86.20352290126326 4.511946372076636e-14
    vertex 42.662250209308716 91.55518190126325 4.511946372076636e-14
    vertex 42.61225020930872 89.85352290126326 4.511946372076636e-14
  endloop
endfacet
facet normal 0.0 0.0 -1.0
  outer loop
    vertex 42.61225020930872 89.85352290126326 4.511946372076636e-14
    vertex 42.662250209308716 91.55518190126325 4.511946372076636e-14
    vertex 42.662250209308716 89.85352290126326 4.511946372076636e-14
  endloop
endfacet
facet normal 0.0 0.0 -1.0
  outer loop
    vertex 10.092149209308717 77.75352290126325 4.511946372076636e-14
    vertex 21.761903546165186 84.85122674445856 4.511946372076636e-14
    vertex 42.61225020930872 77.75352290126325 4.511946372076636e-14
  endloop
endfacet
facet normal 0.0 0.0 -1.0
  outer loop
    vertex 21.761903546165186 84.85122674445856 4.511946372076636e-14
    vertex 10.092149209308717 77.75352290126325 4.511946372076636e-14
    vertex 21.424250209308713 84.99108733596503 4.511946372076636e-14
  endloop
endfacet
facet normal 0.0 0.0 -1.0
  outer loop
    vertex 21.424250209308713 84.99108733596503 4.511946372076636e-14
    vertex 10.092149209308717 77.75352290126325 4.511946372076636e-14
    vertex 21.134300715647548 85.21357340760208 4.511946372076636e-14
  endloop
endfacet
facet normal 0.0 0.0 -1.0
  outer loop
    vertex 21.134300715647548 85.21357340760208 4.511946372076636e-14
    vertex 10.092149209308717 77.75352290126325 4.511946372076636e-14
    vertex 20.9118146440105 85.50352290126325 4.511946372076636e-14
  endloop
endfacet
facet normal 0.0 0.0 -1.0
  outer loop
    vertex 20.9118146440105 85.50352290126325 4.511946372076636e-14
    vertex 10.092149209308717 77.75352290126325 4.511946372076636e-14
    vertex 20.771954052504018 85.84117623811973 4.511946372076636e-14
  endloop
endfacet
facet normal 0.0 0.0 -1.0
  outer loop
    vertex 20.771954052504018 85.84117623811973 4.511946372076636e-14
    vertex 10.092149209308717 77.75352290126325 4.511946372076636e-14
    vertex 20.724250209308718 86.20352290126326 4.511946372076636e-14
  endloop
endfacet
facet normal 0.0 0.0 -1.0
  outer loop
    vertex 42.61225020930872 77.75352290126325 4.511946372076636e-14
    vertex 21.761903546165186 84.85122674445856 4.511946372076636e-14
    vertex 22.124250209308716 84.80352290126325 4.511946372076636e-14
  endloop
endfacet
facet normal 0.0 0.0 -1.0
  outer loop
    vertex 42.61225020930872 77.75352290126325 4.511946372076636e-14
    vertex 22.124250209308716 84.80352290126325 4.511946372076636e-14
    vertex 22.486596872452242 84.85122674445856 4.511946372076636e-14
  endloop
endfacet
facet normal 0.0 0.0 -1.0
  outer loop
    vertex 42.61225020930872 77.75352290126325 4.511946372076636e-14
    vertex 22.486596872452242 84.85122674445856 4.511946372076636e-14
    vertex 22.824250209308715 84.99108733596503 4.511946372076636e-14
  endloop
endfacet
facet normal 0.0 0.0 -1.0
  outer loop
    vertex 42.61225020930872 77.75352290126325 4.511946372076636e-14
    vertex 22.824250209308715 84.99108733596503 4.511946372076636e-14
    vertex 23.114199702969884 85.21357340760208 4.511946372076636e-14
  endloop
endfacet
facet normal 0.0 0.0 -1.0
  outer loop
    vertex 42.61225020930872 77.75352290126325 4.511946372076636e-14
    vertex 23.114199702969884 85.21357340760208 4.511946372076636e-14
    vertex 23.33668577460693 85.50352290126325 4.511946372076636e-14
  endloop
endfacet
facet normal 0.0 0.0 -1.0
  outer loop
    vertex 42.61225020930872 77.75352290126325 4.511946372076636e-14
    vertex 23.33668577460693 85.50352290126325 4.511946372076636e-14
    vertex 23.47654636611341 85.84117623811973 4.511946372076636e-14
  endloop
endfacet
facet normal 0.0 0.0 -1.0
  outer loop
    vertex 42.61225020930872 77.75352290126325 4.511946372076636e-14
    vertex 23.47654636611341 85.84117623811973 4.511946372076636e-14
    vertex 23.524250209308715 86.20352290126326 4.511946372076636e-14
  endloop
endfacet
facet normal 0.0 0.0 -1.0
  outer loop
    vertex 42.61225020930872 77.75352290126325 4.511946372076636e-14
    vertex 23.524250209308715 86.20352290126326 4.511946372076636e-14
    vertex 42.61225020930872 89.85352290126326 4.511946372076636e-14
  endloop
endfacet
facet normal -0.0 -0.0 -1.0
  outer loop
    vertex 65.8122502093087 89.85352290126326 -4.999999999999955
    vertex 42.61225020930872 77.75352290126325 -4.999999999999955
    vertex 42.61225020930872 89.85352290126326 -4.999999999999955
  endloop
endfacet
facet normal -0.0 -0.0 -1.0
  outer loop
    vertex 42.61225020930872 77.75352290126325 -4.999999999999955
    vertex 65.8122502093087 89.85352290126326 -4.999999999999955
    vertex 65.8122502093087 77.75352290126325 -4.999999999999955
  endloop
endfacet
facet normal 0.6087614290087215 -0.7933533402912345 0.0
  outer loop
    vertex 21.424250209308717 87.41595846656146 5.000000000000045
    vertex 21.134300715647548 87.19347239492441 4.511946372076636e-14
    vertex 21.424250209308717 87.41595846656146 4.511946372076636e-14
  endloop
endfacet
facet normal 0.6087614290087215 -0.7933533402912345 0.0
  outer loop
    vertex 21.134300715647548 87.19347239492441 4.511946372076636e-14
    vertex 21.424250209308717 87.41595846656146 5.000000000000045
    vertex 21.134300715647548 87.19347239492441 5.000000000000045
  endloop
endfacet
facet normal 0.9914448613738109 0.1305261922200486 0.0
  outer loop
    vertex 20.724250209308718 86.20352290126326 4.511946372076636e-14
    vertex 20.771954052504018 85.84117623811973 5.000000000000045
    vertex 20.771954052504018 85.84117623811973 4.511946372076636e-14
  endloop
endfacet
facet normal 0.9914448613738109 0.1305261922200486 0.0
  outer loop
    vertex 20.771954052504018 85.84117623811973 5.000000000000045
    vertex 20.724250209308718 86.20352290126326 4.511946372076636e-14
    vertex 20.724250209308718 86.20352290126326 5.000000000000045
  endloop
endfacet
facet normal 0.9914448613738098 -0.13052619222005618 0.0
  outer loop
    vertex 20.77195405250402 86.56586956440678 4.511946372076636e-14
    vertex 20.724250209308718 86.20352290126326 5.000000000000045
    vertex 20.724250209308718 86.20352290126326 4.511946372076636e-14
  endloop
endfacet
facet normal 0.9914448613738098 -0.13052619222005618 0.0
  outer loop
    vertex 20.724250209308718 86.20352290126326 5.000000000000045
    vertex 20.77195405250402 86.56586956440678 4.511946372076636e-14
    vertex 20.77195405250402 86.56586956440678 5.000000000000045
  endloop
endfacet
facet normal 0.38268343236507685 -0.9238795325112922 0.0
  outer loop
    vertex 21.76190354616519 87.55581905806794 5.000000000000045
    vertex 21.424250209308717 87.41595846656146 4.511946372076636e-14
    vertex 21.76190354616519 87.55581905806794 4.511946372076636e-14
  endloop
endfacet
facet normal 0.38268343236507685 -0.9238795325112922 0.0
  outer loop
    vertex 21.424250209308717 87.41595846656146 4.511946372076636e-14
    vertex 21.76190354616519 87.55581905806794 5.000000000000045
    vertex 21.424250209308717 87.41595846656146 5.000000000000045
  endloop
endfacet
facet normal -0.13052619222005418 -0.99144486137381 -0.0
  outer loop
    vertex 22.486596872452246 87.55581905806794 5.000000000000045
    vertex 22.124250209308716 87.60352290126325 4.511946372076636e-14
    vertex 22.486596872452246 87.55581905806794 4.511946372076636e-14
  endloop
endfacet
facet normal -0.13052619222005418 -0.99144486137381 -0.0
  outer loop
    vertex 22.124250209308716 87.60352290126325 4.511946372076636e-14
    vertex 22.486596872452246 87.55581905806794 5.000000000000045
    vertex 22.124250209308716 87.60352290126325 5.000000000000045
  endloop
endfacet
facet normal -0.38268343236507685 -0.9238795325112922 -0.0
  outer loop
    vertex 22.82425020930872 87.41595846656146 5.000000000000045
    vertex 22.486596872452246 87.55581905806794 4.511946372076636e-14
    vertex 22.82425020930872 87.41595846656146 4.511946372076636e-14
  endloop
endfacet
facet normal -0.38268343236507685 -0.9238795325112922 -0.0
  outer loop
    vertex 22.486596872452246 87.55581905806794 4.511946372076636e-14
    vertex 22.82425020930872 87.41595846656146 5.000000000000045
    vertex 22.486596872452246 87.55581905806794 5.000000000000045
  endloop
endfacet
facet normal 0.9238795325112878 -0.3826834323650873 0.0
  outer loop
    vertex 20.9118146440105 86.90352290126324 4.511946372076636e-14
    vertex 20.77195405250402 86.56586956440678 5.000000000000045
    vertex 20.77195405250402 86.56586956440678 4.511946372076636e-14
  endloop
endfacet
facet normal 0.9238795325112878 -0.3826834323650873 0.0
  outer loop
    vertex 20.77195405250402 86.56586956440678 5.000000000000045
    vertex 20.9118146440105 86.90352290126324 4.511946372076636e-14
    vertex 20.9118146440105 86.90352290126324 5.000000000000045
  endloop
endfacet
facet normal -0.9238795325112878 -0.3826834323650873 -0.0
  outer loop
    vertex 23.33668577460693 86.90352290126324 5.000000000000045
    vertex 23.47654636611341 86.56586956440678 4.511946372076636e-14
    vertex 23.47654636611341 86.56586956440678 5.000000000000045
  endloop
endfacet
facet normal -0.9238795325112878 -0.3826834323650873 -0.0
  outer loop
    vertex 23.47654636611341 86.56586956440678 4.511946372076636e-14
    vertex 23.33668577460693 86.90352290126324 5.000000000000045
    vertex 23.33668577460693 86.90352290126324 4.511946372076636e-14
  endloop
endfacet
facet normal -0.9914448613738098 -0.13052619222005618 -0.0
  outer loop
    vertex 23.47654636611341 86.56586956440678 5.000000000000045
    vertex 23.524250209308715 86.20352290126326 4.511946372076636e-14
    vertex 23.524250209308715 86.20352290126326 5.000000000000045
  endloop
endfacet
facet normal -0.9914448613738098 -0.13052619222005618 -0.0
  outer loop
    vertex 23.524250209308715 86.20352290126326 4.511946372076636e-14
    vertex 23.47654636611341 86.56586956440678 5.000000000000045
    vertex 23.47654636611341 86.56586956440678 4.511946372076636e-14
  endloop
endfacet
facet normal 0.7933533402912383 -0.6087614290087167 0.0
  outer loop
    vertex 21.134300715647548 87.19347239492441 4.511946372076636e-14
    vertex 20.9118146440105 86.90352290126324 5.000000000000045
    vertex 20.9118146440105 86.90352290126324 4.511946372076636e-14
  endloop
endfacet
facet normal 0.7933533402912383 -0.6087614290087167 0.0
  outer loop
    vertex 20.9118146440105 86.90352290126324 5.000000000000045
    vertex 21.134300715647548 87.19347239492441 4.511946372076636e-14
    vertex 21.134300715647548 87.19347239492441 5.000000000000045
  endloop
endfacet
facet normal -0.7933533402912383 -0.6087614290087167 -0.0
  outer loop
    vertex 23.114199702969884 87.19347239492441 5.000000000000045
    vertex 23.33668577460693 86.90352290126324 4.511946372076636e-14
    vertex 23.33668577460693 86.90352290126324 5.000000000000045
  endloop
endfacet
facet normal -0.7933533402912383 -0.6087614290087167 -0.0
  outer loop
    vertex 23.33668577460693 86.90352290126324 4.511946372076636e-14
    vertex 23.114199702969884 87.19347239492441 5.000000000000045
    vertex 23.114199702969884 87.19347239492441 4.511946372076636e-14
  endloop
endfacet
facet normal -0.6087614290087252 -0.7933533402912317 -0.0
  outer loop
    vertex 23.114199702969884 87.19347239492441 5.000000000000045
    vertex 22.82425020930872 87.41595846656146 4.511946372076636e-14
    vertex 23.114199702969884 87.19347239492441 4.511946372076636e-14
  endloop
endfacet
facet normal -0.6087614290087252 -0.7933533402912317 -0.0
  outer loop
    vertex 22.82425020930872 87.41595846656146 4.511946372076636e-14
    vertex 23.114199702969884 87.19347239492441 5.000000000000045
    vertex 22.82425020930872 87.41595846656146 5.000000000000045
  endloop
endfacet
facet normal -0.9914448613738098 0.13052619222005618 0.0
  outer loop
    vertex 23.524250209308715 86.20352290126326 5.000000000000045
    vertex 23.47654636611341 85.84117623811973 4.511946372076636e-14
    vertex 23.47654636611341 85.84117623811973 5.000000000000045
  endloop
endfacet
facet normal -0.9914448613738098 0.13052619222005618 0.0
  outer loop
    vertex 23.47654636611341 85.84117623811973 4.511946372076636e-14
    vertex 23.524250209308715 86.20352290126326 5.000000000000045
    vertex 23.524250209308715 86.20352290126326 4.511946372076636e-14
  endloop
endfacet
facet normal -0.9238795325112878 0.3826834323650873 0.0
  outer loop
    vertex 23.47654636611341 85.84117623811973 5.000000000000045
    vertex 23.33668577460693 85.50352290126325 4.511946372076636e-14
    vertex 23.33668577460693 85.50352290126325 5.000000000000045
  endloop
endfacet
facet normal -0.9238795325112878 0.3826834323650873 0.0
  outer loop
    vertex 23.33668577460693 85.50352290126325 4.511946372076636e-14
    vertex 23.47654636611341 85.84117623811973 5.000000000000045
    vertex 23.47654636611341 85.84117623811973 4.511946372076636e-14
  endloop
endfacet
facet normal 0.13052619222005518 -0.9914448613738099 0.0
  outer loop
    vertex 22.124250209308716 87.60352290126325 5.000000000000045
    vertex 21.76190354616519 87.55581905806794 4.511946372076636e-14
    vertex 22.124250209308716 87.60352290126325 4.511946372076636e-14
  endloop
endfacet
facet normal 0.13052619222005518 -0.9914448613738099 0.0
  outer loop
    vertex 21.76190354616519 87.55581905806794 4.511946372076636e-14
    vertex 22.124250209308716 87.60352290126325 5.000000000000045
    vertex 21.76190354616519 87.55581905806794 5.000000000000045
  endloop
endfacet
facet normal -0.7933533402912383 0.6087614290087167 0.0
  outer loop
    vertex 23.33668577460693 85.50352290126325 5.000000000000045
    vertex 23.114199702969884 85.21357340760208 4.511946372076636e-14
    vertex 23.114199702969884 85.21357340760208 5.000000000000045
  endloop
endfacet
facet normal -0.7933533402912383 0.6087614290087167 0.0
  outer loop
    vertex 23.114199702969884 85.21357340760208 4.511946372076636e-14
    vertex 23.33668577460693 85.50352290126325 5.000000000000045
    vertex 23.33668577460693 85.50352290126325 4.511946372076636e-14
  endloop
endfacet
facet normal -0.6087614290087215 0.7933533402912345 0.0
  outer loop
    vertex 22.824250209308715 84.99108733596503 5.000000000000045
    vertex 23.114199702969884 85.21357340760208 4.511946372076636e-14
    vertex 22.824250209308715 84.99108733596503 4.511946372076636e-14
  endloop
endfacet
facet normal -0.6087614290087215 0.7933533402912345 0.0
  outer loop
    vertex 23.114199702969884 85.21357340760208 4.511946372076636e-14
    vertex 22.824250209308715 84.99108733596503 5.000000000000045
    vertex 23.114199702969884 85.21357340760208 5.000000000000045
  endloop
endfacet
facet normal 0.6087614290087252 0.7933533402912317 0.0
  outer loop
    vertex 21.134300715647548 85.21357340760208 5.000000000000045
    vertex 21.424250209308713 84.99108733596503 4.511946372076636e-14
    vertex 21.134300715647548 85.21357340760208 4.511946372076636e-14
  endloop
endfacet
facet normal 0.6087614290087252 0.7933533402912317 0.0
  outer loop
    vertex 21.424250209308713 84.99108733596503 4.511946372076636e-14
    vertex 21.134300715647548 85.21357340760208 5.000000000000045
    vertex 21.424250209308713 84.99108733596503 5.000000000000045
  endloop
endfacet
facet normal 0.7933533402912345 0.6087614290087215 0.0
  outer loop
    vertex 20.9118146440105 85.50352290126325 4.511946372076636e-14
    vertex 21.134300715647548 85.21357340760208 5.000000000000045
    vertex 21.134300715647548 85.21357340760208 4.511946372076636e-14
  endloop
endfacet
facet normal 0.7933533402912345 0.6087614290087215 0.0
  outer loop
    vertex 21.134300715647548 85.21357340760208 5.000000000000045
    vertex 20.9118146440105 85.50352290126325 4.511946372076636e-14
    vertex 20.9118146440105 85.50352290126325 5.000000000000045
  endloop
endfacet
facet normal -0.38268343236507685 0.9238795325112922 0.0
  outer loop
    vertex 22.486596872452242 84.85122674445856 5.000000000000045
    vertex 22.824250209308715 84.99108733596503 4.511946372076636e-14
    vertex 22.486596872452242 84.85122674445856 4.511946372076636e-14
  endloop
endfacet
facet normal -0.38268343236507685 0.9238795325112922 0.0
  outer loop
    vertex 22.824250209308715 84.99108733596503 4.511946372076636e-14
    vertex 22.486596872452242 84.85122674445856 5.000000000000045
    vertex 22.824250209308715 84.99108733596503 5.000000000000045
  endloop
endfacet
facet normal 0.13052619222005418 0.99144486137381 0.0
  outer loop
    vertex 21.761903546165186 84.85122674445856 5.000000000000045
    vertex 22.124250209308716 84.80352290126325 4.511946372076636e-14
    vertex 21.761903546165186 84.85122674445856 4.511946372076636e-14
  endloop
endfacet
facet normal 0.13052619222005418 0.99144486137381 0.0
  outer loop
    vertex 22.124250209308716 84.80352290126325 4.511946372076636e-14
    vertex 21.761903546165186 84.85122674445856 5.000000000000045
    vertex 22.124250209308716 84.80352290126325 5.000000000000045
  endloop
endfacet
facet normal 0.9238795325112878 0.3826834323650873 0.0
  outer loop
    vertex 20.771954052504018 85.84117623811973 4.511946372076636e-14
    vertex 20.9118146440105 85.50352290126325 5.000000000000045
    vertex 20.9118146440105 85.50352290126325 4.511946372076636e-14
  endloop
endfacet
facet normal 0.9238795325112878 0.3826834323650873 0.0
  outer loop
    vertex 20.9118146440105 85.50352290126325 5.000000000000045
    vertex 20.771954052504018 85.84117623811973 4.511946372076636e-14
    vertex 20.771954052504018 85.84117623811973 5.000000000000045
  endloop
endfacet
facet normal -0.13052619222005518 0.9914448613738099 0.0
  outer loop
    vertex 22.124250209308716 84.80352290126325 5.000000000000045
    vertex 22.486596872452242 84.85122674445856 4.511946372076636e-14
    vertex 22.124250209308716 84.80352290126325 4.511946372076636e-14
  endloop
endfacet
facet normal -0.13052619222005518 0.9914448613738099 0.0
  outer loop
    vertex 22.486596872452242 84.85122674445856 4.511946372076636e-14
    vertex 22.124250209308716 84.80352290126325 5.000000000000045
    vertex 22.486596872452242 84.85122674445856 5.000000000000045
  endloop
endfacet
facet normal 0.38268343236507685 0.9238795325112922 0.0
  outer loop
    vertex 21.424250209308713 84.99108733596503 5.000000000000045
    vertex 21.761903546165186 84.85122674445856 4.511946372076636e-14
    vertex 21.424250209308713 84.99108733596503 4.511946372076636e-14
  endloop
endfacet
facet normal 0.38268343236507685 0.9238795325112922 0.0
  outer loop
    vertex 21.761903546165186 84.85122674445856 4.511946372076636e-14
    vertex 21.424250209308713 84.99108733596503 5.000000000000045
    vertex 21.761903546165186 84.85122674445856 5.000000000000045
  endloop
endfacet
endsolid GC101drillblock
